<svg xmlns="http://www.w3.org/2000/svg" 
width="263" 
height="234" 
viewBox="0 0 263 234" 
version="1.1">
<path d="M 104 88.608 L 75.500 109.076 57.514 121.788 L 39.528 134.500 37.764 136.250 L 36 138 36 149.441 L 36 160.882 36.980 161.488 L 37.960 162.093 62.730 144.254 L 87.500 126.414 95.652 120.707 L 103.805 115 104.152 115 L 104.500 115 104.284 166.629 L 104.068 218.259 105.088 220.165 L 106.108 222.071 115.804 221.786 L 125.500 221.500 125.758 160.331 L 126.015 99.162 130.143 96.126 L 134.271 93.090 138.628 96.088 L 142.985 99.086 143.242 160.293 L 143.500 221.500 152.500 221.755 L 161.500 222.009 162.800 221.165 L 164.100 220.320 164.136 167.586 L 164.173 114.852 165.463 115.347 L 166.754 115.843 192.127 134.091 L 217.500 152.339 224.500 157.225 L 231.500 162.111 232.049 159.305 L 232.599 156.500 232.395 146.645 L 232.191 136.791 231.345 136.014 L 230.500 135.238 183.343 101.619 L 136.187 68 134.343 68.071 L 132.500 68.141 104 88.608" stroke="none" fill="#0ea5e9" fill-rule="evenodd"/>
<path d="M 120.500 18.120 L 108.500 25.158 73.500 45.229 L 38.500 65.300 37.225 66.876 L 35.949 68.451 36.032 95.702 L 36.116 122.953 36.843 123.403 L 37.570 123.852 47.535 116.649 L 57.500 109.445 57.799 93.973 L 58.098 78.500 95.707 57 L 133.316 35.500 134.009 35.216 L 134.703 34.932 163.549 51.572 L 192.396 68.211 193.979 68.855 L 195.563 69.500 203.281 74.354 L 211 79.207 211 94.019 L 211 108.832 214.750 111.753 L 218.500 114.674 224.827 118.927 L 231.154 123.179 231.589 122.744 L 232.025 122.308 232.083 94.558 L 232.141 66.807 231.820 66.500 L 231.500 66.193 183.656 38.597 L 135.811 11 134.156 11.041 L 132.500 11.083 120.500 18.120 M 46.296 167.822 L 37.091 174.500 36.441 176.368 L 35.791 178.235 37.645 180.002 L 39.500 181.770 63.500 195.551 L 87.500 209.331 91.750 211.751 L 96 214.171 96 202.154 L 96 190.136 93.250 188.222 L 90.500 186.308 76.500 178.505 L 62.500 170.703 60.250 168.677 L 58 166.651 58 163.826 L 58 161 56.750 161.072 L 55.500 161.143 46.296 167.822 M 211.667 161.667 L 211 162.333 211 164.941 L 211 167.549 199.750 174.177 L 188.500 180.806 180.761 185.153 L 173.021 189.500 173.011 201.809 L 173 214.118 173.750 213.695 L 174.500 213.272 202 197.498 L 229.500 181.724 231.289 180.045 L 233.078 178.367 232.394 176.584 L 231.710 174.802 222.366 167.901 L 213.022 161 212.678 161 L 212.333 161 211.667 161.667" stroke="none" fill="#4f46e5" fill-rule="evenodd"/></svg>